<?xml version="1.0" encoding="UTF-8" standalone="no"?>
<svg
   version="1.0"
   width="186.000000pt"
   height="186.000000pt"
   viewBox="0 0 186.000000 186.000000"
   preserveAspectRatio="xMidYMid meet"
   id="svg2"
   sodipodi:docname="circular.svg"
   inkscape:version="1.4.2 (ebf0e940, 2025-05-08)"
   xmlns:inkscape="http://www.inkscape.org/namespaces/inkscape"
   xmlns:sodipodi="http://sodipodi.sourceforge.net/DTD/sodipodi-0.dtd"
   xmlns="http://www.w3.org/2000/svg"
   xmlns:svg="http://www.w3.org/2000/svg">
  <defs
     id="defs2" />
  <sodipodi:namedview
     id="namedview2"
     pagecolor="#ffffff"
     bordercolor="#000000"
     borderopacity="0.25"
     inkscape:showpageshadow="2"
     inkscape:pageopacity="0.0"
     inkscape:pagecheckerboard="0"
     inkscape:deskcolor="#d1d1d1"
     inkscape:document-units="pt"
     inkscape:zoom="0.10483871"
     inkscape:cx="119.23077"
     inkscape:cy="124"
     inkscape:window-width="896"
     inkscape:window-height="617"
     inkscape:window-x="0"
     inkscape:window-y="37"
     inkscape:window-maximized="0"
     inkscape:current-layer="svg2" />
  <metadata
     id="metadata1">
Created by potrace 1.16, written by Peter Selinger 2001-2019
</metadata>
  <g
     transform="translate(0.000000,186.000000) scale(0.100000,-0.100000)"
     id="g2">
    <path
       d="M1120 1710 l-33 -31 -76 11 c-307 42 -640 -160 -781 -474 -97 -216 -99 -479 -3 -669 26 -53 45 -66 69 -46 13 11 15 30 9 129 -9 136 4 202 62 320 79 163 310 331 476 348 l47 5 0 -36 c0 -62 22 -65 164 -17 143 47 162 59 187 114 16 34 19 66 19 198 0 145 -1 158 -19 168 -38 20 -87 12 -121 -20z"
       id="path1" />
    <path
       d="M1583 1318 c-4 -7 -6 -62 -5 -123 4 -133 -13 -219 -64 -315 -80 -153 -253 -290 -433 -344 -88 -26 -99 -23 -103 25 -5 65 -19 68 -145 30 -146 -44 -157 -48 -187 -80 -33 -34 -46 -107 -46 -262 0 -111 5 -125 53 -142 22 -8 65 8 93 34 20 19 28 19 117 10 422 -43 796 275 857 728 13 96 7 173 -21 279 -36 136 -87 205 -116 160z"
       id="path2" />
  </g>
</svg>
